<svg width="100" height="100" viewBox="0 0 100 100" fill="none" xmlns="http://www.w3.org/2000/svg">
<circle cx="50" cy="50" r="47.5" stroke="white" stroke-width="5"/>
<path d="M35.65 63.4C33.25 63.4 32.05 62.2667 32.05 60V48C32.05 44.6 32.85 42.0167 34.45 40.25C36.0833 38.4833 38.4167 37.6 41.45 37.6C45.5833 37.6 48.3833 39.0833 49.85 42.05C51.3167 39.0833 54.1167 37.6 58.25 37.6C61.2833 37.6 63.6 38.4833 65.2 40.25C66.8333 42.0167 67.65 44.6 67.65 48V60C67.65 62.2667 66.45 63.4 64.05 63.4C61.65 63.4 60.45 62.2667 60.45 60V48.4C60.45 46.7 60.1667 45.4833 59.6 44.75C59.0333 43.9833 58.15 43.6 56.95 43.6C54.55 43.6 53.35 45.2 53.35 48.4V59.8C53.35 62.0667 52.1833 63.2 49.85 63.2C47.5167 63.2 46.35 62.0667 46.35 59.8V48.4C46.35 45.2 45.15 43.6 42.75 43.6C40.4167 43.6 39.25 45.2 39.25 48.4V60C39.25 62.2667 38.05 63.4 35.65 63.4Z" fill="white"/>
</svg>
